<?xml version="1.0" encoding="UTF-8"?>
<svg id="Layer_1" data-name="Layer 1" xmlns="http://www.w3.org/2000/svg" viewBox="0 0 250 100">
  <defs>
    <style>
      .cls-1 {
        letter-spacing: .2em;
      }

      .cls-1, .cls-2, .cls-3, .cls-4, .cls-5, .cls-6, .cls-7, .cls-8, .cls-9, .cls-10 {
        fill: #fff;
      }

      .cls-1, .cls-2, .cls-3, .cls-4, .cls-5, .cls-11, .cls-7, .cls-8, .cls-9, .cls-10 {
        isolation: isolate;
      }

      .cls-1, .cls-7, .cls-10 {
        font-family: Inter-SemiBold, Inter;
        font-size: 22.25px;
        font-weight: 600;
      }

      .cls-2 {
        letter-spacing: .07em;
      }

      .cls-2, .cls-3, .cls-4, .cls-5, .cls-8, .cls-9 {
        font-size: 21.14px;
        font-weight: 300;
      }

      .cls-2, .cls-3, .cls-4, .cls-5, .cls-9 {
        font-family: Inter-Light, Inter;
      }

      .cls-3 {
        letter-spacing: .1em;
      }

      .cls-4 {
        letter-spacing: .1em;
      }

      .cls-5 {
        letter-spacing: .11em;
      }

      .cls-6 {
        fill-rule: evenodd;
      }

      .cls-7 {
        letter-spacing: .12em;
      }

      .cls-8 {
        font-family: Inter-LightItalic, Inter;
        font-style: italic;
      }

      .cls-10 {
        letter-spacing: .18em;
      }
    </style>
  </defs>
  <g id="Logo_white" data-name="Logo white">
    <path class="cls-6" d="M26.16,25.28c-2.58.58-4.96,1.44-7.07,2.52l1.18.57.98.42,1.32.5.06.02c.98-1.58,2.18-2.95,3.53-4.04h0ZM41.57,25.22c1.4,1.11,2.63,2.52,3.64,4.15.59-.2,1.16-.42,1.72-.65l.52-.22.96-.45.49-.25c-2.18-1.12-4.65-2-7.34-2.58h0ZM31.21,24.8c-2.65.75-4.96,2.59-6.64,5.13l1.11.29,1.07.24,1.44.26,1.25.18,1.14.12.64.05v-6.27h0ZM36.49,24.77v6.32l.36-.02,1.14-.11,1.13-.14,1.11-.18.89-.17.54-.11.53-.12.46-.11.61-.16c-1.7-2.59-4.06-4.46-6.77-5.2h0ZM21.95,36.88c.28-1.86.83-3.61,1.6-5.18.57.17,1.15.32,1.74.46l.57.13,1.61.32.56.09,1.58.22,1.6.14v3.82h-9.26ZM10.45,36.88h9.49c.29-2.09.88-4.04,1.72-5.8-1.65-.6-3.19-1.31-4.6-2.12-3.29,2.12-5.67,4.84-6.61,7.92h0ZM36.49,22.52v-8.88h30.74v23.25h-7.63c-.88-3.46-3.3-6.59-6.79-9.05l.05-.03-1.91-1.16h0c-3.94-2.26-8.93-3.77-14.44-4.12h0ZM47.85,36.88h9.68c-.94-3.07-3.32-5.8-6.61-7.92h0s-.97.53-.97.53l-1.36.66-1.49.63-.94.35c.82,1.74,1.4,3.68,1.69,5.74h0ZM36.49,33.08l.72-.04,1.89-.2,1.91-.31,1.85-.4,1.41-.37c.75,1.55,1.3,3.28,1.58,5.13h-9.36v-3.81h0ZM31.21,22.54c-5.4.38-10.28,1.88-14.15,4.11h0s-1.91,1.16-1.91,1.16l.05.03c-3.5,2.45-5.91,5.58-6.79,9.05H.47V13.63h30.74v8.9ZM45.96,41.87c-.24,2.31-.89,4.46-1.86,6.33l-1.83-.47-1.89-.37-1.88-.27-1.86-.17h-.14v-5.05h9.46ZM31.21,46.95l-.65.04-1.84.21-1.79.29-1.8.39-1.4.37c-.98-1.88-1.64-4.05-1.88-6.38h9.37v5.07h0ZM57.76,41.87h-9.81c-.24,2.52-.93,4.87-1.95,6.93l1.77.68,1.59.72,1.24.65c3.77-2.34,6.41-5.45,7.15-8.98h0ZM19.84,41.87h-9.61c.75,3.53,3.38,6.65,7.15,8.98l1.68-.86,1.67-.73,1.08-.41c-1.04-2.08-1.73-4.45-1.98-6.99h0ZM22.83,50.62c-1.18.41-2.3.87-3.36,1.39,2.01.99,4.26,1.78,6.69,2.33-1.26-1.02-2.39-2.28-3.33-3.72h0ZM45.01,50.56c-.97,1.5-2.13,2.8-3.44,3.83,2.53-.55,4.87-1.36,6.95-2.39l-.96-.45-.96-.41-.7-.27-.89-.32h0ZM31.21,48.93h-.16s-1.18.12-1.18.12l-1.1.14-.81.13-.47.08-.4.08c-.79.15-1.56.33-2.31.54,1.66,2.37,3.88,4.08,6.42,4.8v-5.89h0ZM36.49,48.91v5.93c2.59-.71,4.87-2.46,6.54-4.87l-1.24-.3-1.11-.23-1.35-.23-1.16-.15-1.4-.13-.28-.02h0ZM54.3,54.95s-1.09,4.5-.93,5.09c.16.59,3.97-.53,3.97-.53,0,0-.12,1.05-1.21,2.67-1.06,1.58-2.53,3.23-4.07,3.23-1.43,0-2.58-1.4-2.58-1.4,0,0-1.34-1.27-1.4-2.76-.03-.68-.06-1.86,1.49-3.26,2.65-2.38,4.72-3.04,4.72-3.04h0ZM9.93,62.37h16.18v10.65H9.93v-10.65h0ZM8.78,73.05l.08-10.7s-2.16-.2-2.94.82l.03,11.02s1.15-1.05,2.83-1.15h0ZM11.09,79.33v-1.76h5.84v1.76h9.17s-1.27-1.24-1.27-2.58,1.27-2.51,1.27-2.51H8.65s-2.48.03-2.48,2.51,2.48,2.58,2.48,2.58h2.43ZM16.34,78.17v2.94l-2.34-1.54-2.31,1.54v-2.93h4.65ZM44.81,67.64h14.67l-7.34,15.17-3.67-7.58-3.67-7.58h0ZM59.78,41.87c-.69,3.9-3.32,7.42-7.25,10.1l.06.03-1.97,1.15h0c-3.89,2.16-8.76,3.6-14.12,3.94v38.18s16.7.87,25.04-7.35c5.86-5.78,5.7-18.11,5.7-18.11v-27.95h-7.45,0ZM8.21,41.87c.69,3.9,3.32,7.42,7.25,10.1l-.06.03,1.97,1.15h0c3.82,2.12,8.58,3.55,13.83,3.92v38.2s-16.7.87-25.04-7.35C.31,82.15.47,69.83.47,69.83v-27.95h7.74Z"/>
    <g class="cls-11">
      <text class="cls-10" transform="translate(77.62 29.83)"><tspan x="0" y="0">J</tspan></text>
      <text class="cls-1" transform="translate(94.54 29.83)"><tspan x="0" y="0">A</tspan></text>
      <text class="cls-7" transform="translate(115.18 29.83)"><tspan x="0" y="0">P</tspan></text>
      <text class="cls-1" transform="translate(132.2 29.83)"><tspan x="0" y="0">AN</tspan></text>
      <text class="cls-4" transform="translate(77.62 51.63)"><tspan x="0" y="0">Campus</tspan></text>
      <text class="cls-2" transform="translate(77.62 73.44)"><tspan x="0" y="0">Crusade</tspan></text>
      <text class="cls-9" transform="translate(171.67 73.44)"><tspan x="0" y="0"> </tspan></text>
      <text class="cls-8" transform="translate(177.61 73.44)"><tspan x="0" y="0">f</tspan></text>
      <text class="cls-8" transform="translate(184.4 73.44)"><tspan x="0" y="0">or</tspan></text>
      <text class="cls-4" transform="translate(77.62 95.25)"><tspan x="0" y="0">Ch</tspan></text>
      <text class="cls-5" transform="translate(109.69 95.25)"><tspan x="0" y="0">r</tspan></text>
      <text class="cls-3" transform="translate(119.62 95.25)"><tspan x="0" y="0">ist</tspan></text>
    </g>
  </g>
</svg>